# xmcd
#
# Track frame offsets:
#	150
#	20170
#	36519
#	44768
#	54967
#	65166
#	75365
#	85264
#	95163
#	105212
#	115261
#	125910
#	139409
#
# Disc length: 1978 seconds
#
# Revision: 1
# Processed by: cddbd v1.5.1PL0 Copyright (c) Steve Scherf et al.
# Submitted via: CDex 1.50Beta5
#
DISCID=bd07b80d
DTITLE=Prima/Grooming - うたかな SOUND TRACK DISC
DYEAR=1900
DGENRE=
TTITLE0=うたかな
TTITLE1=謡奏(Long Version)
TTITLE2=謡奏(Short Version)
TTITLE3=紡詞
TTITLE4=詩空想雨
TTITLE5=機械仕掛けの霄
TTITLE6=言縛
TTITLE7=夜音界
TTITLE8=銀旋律
TTITLE9=夢葬恋歌
TTITLE10=綴眼闇霖
TTITLE11=雨上がり
TTITLE12=詩片
EXTD=
EXTT0=
EXTT1=
EXTT2=
EXTT3=
EXTT4=
EXTT5=
EXTT6=
EXTT7=
EXTT8=
EXTT9=
EXTT10=
EXTT11=
EXTT12=
PLAYORDER=
